<?xml version="1.0" encoding="UTF-8"?>
<svg width="170px" height="194px" viewBox="0 0 170 194" version="1.1" xmlns="http://www.w3.org/2000/svg" xmlns:xlink="http://www.w3.org/1999/xlink">
    <!-- Generator: Sketch 51.3 (57544) - http://www.bohemiancoding.com/sketch -->
    <title>public/img/svg/ant-logo</title>
    <desc>Created with Sketch.</desc>
    <defs></defs>
    <g id="Page-1" stroke="none" stroke-width="1" fill="none" fill-rule="evenodd">
        <g id="public/img/svg/ant-logo" fill="#000000" fill-rule="nonzero">
            <g id="bJNkre01">
                <g id="Group" transform="translate(84.850000, 96.800000) scale(-1, 1) rotate(-180.000000) translate(-84.850000, -96.800000) translate(0.200000, -0.000000)">
                    <path d="M14.8,191.6 C13.3,188.9 13.8,188.3 20.2,185.2 C33.4,178.7 44,163.2 53.2,136.7 C56.7,126.6 62.2,106.6 61.6,106.1 C61.4,106 57.3,104.7 52.3,103.1 C47.4,101.6 41.6,99.5 39.5,98.4 C37.4,97.4 33.1,96.4 29.8,96.2 C7,95.1 -7.1,68.1 3.7,46.2 C6.1,41.4 9.1,37.9 18,29.7 C30.1,18.6 38.9,13.3 47.7,12 C51.4,11.4 53,10.5 56,7.1 C62.3,-0.1 71.8,-2.4 71.8,3.2 C71.8,6.9 74.4,12.3 76.6,13.5 C79.3,14.9 90.3,14.9 93,13.5 C95.2,12.3 97.8,6.9 97.8,3.2 C97.8,-2.4 107.3,-0.1 113.6,7.1 C116.6,10.5 118.2,11.4 121.9,12 C130.7,13.3 139.5,18.6 151.6,29.7 C160.7,38.1 163.5,41.3 166.1,46.6 C169,52.4 169.3,53.9 169.3,62.1 C169.3,69.7 168.8,72 166.6,76.7 C161.3,88.3 151.2,95.6 140,96.2 C136.6,96.4 132.1,97.5 128.8,99 C125.8,100.4 119.7,102.5 115.3,103.7 C110.9,105 107.2,106.1 107,106.2 C106.4,106.6 111.9,126.7 115.4,136.7 C124.9,164 136.3,180.3 150,186.1 C152,186.9 153.9,188 154.3,188.6 C155.2,190 153,193.6 151.3,193.6 C145.4,193.6 131.6,182.6 124.8,172.7 C115.3,158.6 105.7,134.3 101.5,113.6 L100.2,107.4 L84.3,107.4 L68.4,107.4 L67.1,113.6 C62.9,134.3 53.3,158.6 43.8,172.7 C38.9,179.8 29.3,188.7 23.4,191.4 C17.7,194.1 16.2,194.1 14.8,191.6 Z M112.8,97.3 C117.5,95.9 122.9,94.1 124.9,93.2 L128.5,91.7 L125.1,84.8 C118.8,72.3 119.6,57.6 127.1,46.4 C130.8,41 136.5,36.2 141.4,34.4 C143.3,33.8 144.8,32.9 144.8,32.6 C144.8,31.4 133.4,23.4 129.1,21.4 C126.8,20.4 122.3,19.1 119.1,18.5 C114,17.5 112.8,16.8 108.7,12.3 L104.1,7.2 L103.4,10.1 C101.5,17.6 95.1,21.6 84.8,21.6 C74.5,21.6 68.1,17.6 66.2,10.1 L65.5,7.2 L60.9,12.3 C56.8,16.8 55.6,17.5 50.5,18.5 C47.3,19.1 42.8,20.4 40.5,21.4 C36.2,23.4 24.8,31.4 24.8,32.6 C24.8,32.9 26.3,33.8 28.2,34.4 C33.1,36.2 38.8,41 42.5,46.4 C50,57.6 50.8,72.3 44.5,84.8 L41.1,91.7 L44.7,93.2 C58.6,99 68.1,100.6 87.8,100.2 C102,99.9 105.5,99.5 112.8,97.3 Z M36.4,85.7 C43.5,74.8 43.5,60 36.2,49.4 C33.3,45.3 27.3,41.2 21.7,39.6 C18.6,38.7 18.2,38.9 14.1,43.1 C-1,58.9 9.8,89.3 30.5,89.6 C33.2,89.6 34.2,88.9 36.4,85.7 Z M145.1,88.5 C147.2,87.9 150.7,85.8 152.9,83.8 C164.8,73.2 166,54.1 155.5,43.1 C151.4,38.9 151,38.7 147.9,39.6 C142.3,41.2 136.3,45.3 133.4,49.4 C126.1,60 126.1,74.8 133.2,85.7 C136.1,90 138.1,90.5 145.1,88.5 Z M22.8,34.1 C22.8,33.3 22.2,32.6 21.4,32.6 C20.7,32.6 19.5,33.3 18.8,34.1 C17.7,35.4 18,35.6 20.2,35.6 C21.8,35.6 22.8,35.1 22.8,34.1 Z M150.1,33.6 C151.7,35.5 151.7,35.6 149.3,35.6 C146.7,35.6 146.3,34.9 147.6,32.9 C148.2,32 148.8,32.2 150.1,33.6 Z M69.5,45.9 C67,41.5 68.3,36.1 72.1,34.7 C76.5,33.1 76.9,34.5 73.8,40.7 C70.8,46.6 70.3,47.2 69.5,45.9 Z M94.8,40.6 L91.8,34.6 L94.8,34.6 C98.7,34.6 101.1,38 100.2,42.5 C99.8,44.2 99.2,45.9 98.7,46.2 C98.2,46.4 96.5,44 94.8,40.6 Z" id="Combined-Shape"></path>
                </g>
            </g>
        </g>
    </g>
</svg>